<svg xmlns="http://www.w3.org/2000/svg" width="120" height="120" viewBox="0 0 120 120" fill="none">
  <g fill="#ffffff">
    <path d="M30 18c-3-5-11-5-13 1-2 5 2 10 13 18 11-8 15-13 13-18-2-6-10-6-13-1z"/>
    <path d="M92 46c-2.4-4-8.8-4-10.4.8-1.6 4 1.6 8 10.4 14.4 8.8-6.4 12-10.4 10.4-14.4-1.6-4.8-8-4.8-10.4-.8z"/>
    <path d="M34 78c-2.4-4-8.8-4-10.4.8-1.6 4 1.6 8 10.4 14.4 8.8-6.4 12-10.4 10.4-14.4-1.6-4.8-8-4.8-10.4-.8z"/>
    <circle cx="70" cy="96" r="3"/>
    <circle cx="102" cy="94" r="2.5"/>
    <circle cx="58" cy="52" r="2.5"/>
    <circle cx="10" cy="44" r="2.5"/>
  </g>
</svg>
