<svg xmlns="http://www.w3.org/2000/svg" width="120" height="120" viewBox="0 0 120 120" fill="none">
  <g fill="#ffffff">
    <path d="M18 20c0-4 3-7 7-7h20c4 0 7 3 7 7v8c0 4-3 7-7 7H33l-8 6 1-6h-1c-4 0-7-3-7-7z"/>
    <path d="M74 58c0-3.5 3-6.5 6.5-6.5H98c3.5 0 6.5 3 6.5 6.5v7c0 3.5-3 6.5-6.5 6.5H86l-7 5 1-5c-3.5 0-6-3-6-6.5z"/>
    <path d="M22 82c0-3.5 3-6.5 6.5-6.5H46c3.5 0 6.5 3 6.5 6.5v7c0 3.5-3 6.5-6.5 6.5H34l-7 5 1-5c-3.5 0-6-3-6-6.5z"/>
    <circle cx="92" cy="24" r="4"/>
    <circle cx="104" cy="34" r="2.5"/>
    <circle cx="10" cy="56" r="2.5"/>
    <circle cx="64" cy="104" r="3.5"/>
    <circle cx="80" cy="110" r="2"/>
  </g>
</svg>
