<svg xmlns="http://www.w3.org/2000/svg" width="120" height="120" viewBox="0 0 120 120" fill="none">
  <g fill="#ffffff">
    <path d="M28 14c1.5 8 3 9.5 11 11-8 1.5-9.5 3-11 11-1.5-8-3-9.5-11-11 8-1.5 9.5-3 11-11z"/>
    <path d="M90 50c1.2 6.4 2.4 7.6 8.8 8.8-6.4 1.2-7.6 2.4-8.8 8.8-1.2-6.4-2.4-7.6-8.8-8.8 6.4-1.2 7.6-2.4 8.8-8.8z"/>
    <path d="M40 82c1 5.6 2 6.6 7.6 7.6-5.6 1-6.6 2-7.6 7.6-1-5.6-2-6.6-7.6-7.6 5.6-1 6.6-2 7.6-7.6z"/>
    <circle cx="70" cy="22" r="2.5"/>
    <circle cx="104" cy="30" r="2"/>
    <circle cx="12" cy="60" r="2"/>
    <circle cx="66" cy="104" r="2.5"/>
    <circle cx="100" cy="98" r="2"/>
  </g>
</svg>
